<?xml version="1.0" ?><svg viewBox="0 0 512 512" xmlns="http://www.w3.org/2000/svg"><title/><g data-name="1" id="_1"><path d="M318.72,329.28a14.92,14.92,0,0,1-10.6-4.4l-174-174a15,15,0,0,1,0-21.22l76.37-76.36a15,15,0,0,1,21.21,0l174,174a15,15,0,0,1,0,21.22l-76.37,76.36A15,15,0,0,1,318.72,329.28Zm-152.83-189L318.72,293.06l55.16-55.15L221,85.08Z"/><path d="M271,311.16a15,15,0,0,1-10.61-25.61L366.36,179.62a15,15,0,1,1,21.22,21.21L281.64,306.76A15,15,0,0,1,271,311.16Z"/><path d="M162.8,202.92a15,15,0,0,1-10.61-25.61L258.12,71.38a15,15,0,1,1,21.22,21.21L173.4,198.52A14.94,14.94,0,0,1,162.8,202.92Z"/><path d="M98.71,402.24A42,42,0,0,1,69,330.54l133-133a15,15,0,0,1,21.21,0l38.19,38.18a15,15,0,0,1,0,21.21l-133,133A41.73,41.73,0,0,1,98.71,402.24Zm113.9-172.86L90.23,351.76a12,12,0,0,0,0,17h0a12,12,0,0,0,17,0L229.58,246.35Z"/><path d="M441.13,450H285a15,15,0,0,1-15-15V411.68A39.72,39.72,0,0,1,309.68,372H416.46a39.72,39.72,0,0,1,39.67,39.68V435A15,15,0,0,1,441.13,450ZM300,420H426.13v-8.32a9.69,9.69,0,0,0-9.67-9.68H309.68a9.69,9.69,0,0,0-9.68,9.68Z"/></g></svg>